<svg width="58" height="41" viewBox="0 0 58 41" fill="none" xmlns="http://www.w3.org/2000/svg">
<path d="M37.8544 17.931V17.431H37.3544V17.931H37.8544ZM48.8889 28.9655H48.3889V29.4655H48.8889V28.9655ZM54.4061 28.9655V29.4655H54.9061V28.9655H54.4061ZM57.1647 9.65517H57.6647V9.44806L57.5183 9.30161L57.1647 9.65517ZM48.8889 1.3793L49.2424 1.02575L49.096 0.879303H48.8889V1.3793ZM32.3371 17.931H32.8371V17.431H32.3371V17.931ZM32.3371 28.9655V29.4655H32.8371V28.9655H32.3371ZM26.8199 28.9655H26.3199V29.4655H26.8199V28.9655ZM37.8544 18.431H40.613V17.431H37.8544V18.431ZM38.3544 30.3448V23.4483H37.3544V30.3448H38.3544ZM38.3544 23.4483V17.931H37.3544V23.4483H38.3544ZM40.613 22.9483H37.8544V23.9483H40.613V22.9483ZM42.8716 20.6897C42.8716 21.9371 41.8604 22.9483 40.613 22.9483V23.9483C42.4127 23.9483 43.8716 22.4893 43.8716 20.6897H42.8716ZM40.613 18.431C41.8604 18.431 42.8716 19.4422 42.8716 20.6897H43.8716C43.8716 18.89 42.4127 17.431 40.613 17.431V18.431ZM48.3889 16.5517V28.9655H49.3889V16.5517H48.3889ZM48.8889 29.4655H54.4061V28.4655H48.8889V29.4655ZM54.9061 28.9655V23.4483H53.9061V28.9655H54.9061ZM48.8889 18.431H55.7854V17.431H48.8889V18.431ZM24.5613 13.7931V4.13792H23.5613V13.7931H24.5613ZM56.6647 9.65517V13.7931H57.6647V9.65517H56.6647ZM26.8199 1.8793H48.8889V0.879303H26.8199V1.8793ZM48.5353 1.73286L56.8112 10.0087L57.5183 9.30161L49.2424 1.02575L48.5353 1.73286ZM24.5613 4.13792C24.5613 2.89052 25.5725 1.8793 26.8199 1.8793V0.879303C25.0202 0.879303 23.5613 2.33824 23.5613 4.13792H24.5613ZM23.5613 33.1034V37.2414H24.5613V33.1034H23.5613ZM26.8199 40.5H54.4061V39.5H26.8199V40.5ZM57.6647 37.2414V33.1034H56.6647V37.2414H57.6647ZM54.4061 40.5C56.2058 40.5 57.6647 39.0411 57.6647 37.2414H56.6647C56.6647 38.4888 55.6535 39.5 54.4061 39.5V40.5ZM23.5613 37.2414C23.5613 39.0411 25.0202 40.5 26.8199 40.5V39.5C25.5725 39.5 24.5613 38.4888 24.5613 37.2414H23.5613ZM25.4406 18.431H32.3371V17.431H25.4406V18.431ZM31.8371 17.931V28.9655H32.8371V17.931H31.8371ZM32.3371 28.4655H26.8199V29.4655H32.3371V28.4655ZM27.3199 28.9655V24.8276H26.3199V28.9655H27.3199Z" fill="#30C4F3"/>
<path d="M12.2605 7.11902L13.7931 5.53702L6.89655 0L0 5.53702L1.53257 7.11902L6.13027 3.95501V16.6111C6.13027 18.9841 6.13027 23.7301 9.75215 24.5211H22.9885V22.5676H9.75215C7.66284 21.3571 7.92449 18.9841 7.92449 16.6111V3.95501L12.2605 7.11902Z" fill="#30C4F3"/>
</svg>
