<svg width="131" height="20" viewBox="0 0 131 20" fill="none" xmlns="http://www.w3.org/2000/svg">
<path d="M34 20H123" stroke="url(#paint0_linear)"/>
<mask id="mask0" mask-type="alpha" maskUnits="userSpaceOnUse" x="0" y="0" width="21" height="20">
<path fill-rule="evenodd" clip-rule="evenodd" d="M2.56414 0.359039H6.94243C8.14974 0.359039 9.13157 1.33781 9.13157 2.54137V6.90602C9.13157 8.10957 8.14974 9.08835 6.94243 9.08835H2.56414C1.35683 9.08835 0.375 8.10957 0.375 6.90602V2.54137C0.375 1.33781 1.35683 0.359039 2.56414 0.359039ZM13.5097 0.359039H17.888C19.0953 0.359039 20.0772 1.33781 20.0772 2.54137V6.90602C20.0772 8.10957 19.0953 9.08835 17.888 9.08835H13.5097C12.3024 9.08835 11.3206 8.10957 11.3206 6.90602V2.54137C11.3206 1.33781 12.3024 0.359039 13.5097 0.359039ZM6.94243 11.2707H2.56414C1.35683 11.2707 0.375 12.2494 0.375 13.453V17.8177C0.375 19.0212 1.35683 20 2.56414 20H6.94243C8.14974 20 9.13157 19.0212 9.13157 17.8177V13.453C9.13157 12.2494 8.14974 11.2707 6.94243 11.2707ZM13.5097 11.2707H17.888C19.0953 11.2707 20.0772 12.2494 20.0772 13.453V17.8177C20.0772 19.0212 19.0953 20 17.888 20H13.5097C12.3024 20 11.3206 19.0212 11.3206 17.8177V13.453C11.3206 12.2494 12.3024 11.2707 13.5097 11.2707Z" fill="white"/>
</mask>
<g mask="url(#mask0)">
<rect x="-2.94971" y="-2.95535" width="26.5981" height="26.5153" fill="#30C4F3"/>
</g>
<path d="M34.774 9.718C34.774 8.494 35.05 7.396 35.602 6.424C36.154 5.44 36.904 4.672 37.852 4.12C38.812 3.568 39.874 3.292 41.038 3.292C42.406 3.292 43.6 3.622 44.62 4.282C45.64 4.942 46.384 5.878 46.852 7.09H44.89C44.542 6.334 44.038 5.752 43.378 5.344C42.73 4.936 41.95 4.732 41.038 4.732C40.162 4.732 39.376 4.936 38.68 5.344C37.984 5.752 37.438 6.334 37.042 7.09C36.646 7.834 36.448 8.71 36.448 9.718C36.448 10.714 36.646 11.59 37.042 12.346C37.438 13.09 37.984 13.666 38.68 14.074C39.376 14.482 40.162 14.686 41.038 14.686C41.95 14.686 42.73 14.488 43.378 14.092C44.038 13.684 44.542 13.102 44.89 12.346H46.852C46.384 13.546 45.64 14.476 44.62 15.136C43.6 15.784 42.406 16.108 41.038 16.108C39.874 16.108 38.812 15.838 37.852 15.298C36.904 14.746 36.154 13.984 35.602 13.012C35.05 12.04 34.774 10.942 34.774 9.718ZM53.5923 16.162C52.6683 16.162 51.8283 15.952 51.0723 15.532C50.3283 15.112 49.7403 14.518 49.3083 13.75C48.8883 12.97 48.6783 12.07 48.6783 11.05C48.6783 10.042 48.8943 9.154 49.3263 8.386C49.7703 7.606 50.3703 7.012 51.1263 6.604C51.8823 6.184 52.7283 5.974 53.6643 5.974C54.6003 5.974 55.4463 6.184 56.2023 6.604C56.9583 7.012 57.5523 7.6 57.9843 8.368C58.4283 9.136 58.6503 10.03 58.6503 11.05C58.6503 12.07 58.4223 12.97 57.9663 13.75C57.5223 14.518 56.9163 15.112 56.1483 15.532C55.3803 15.952 54.5283 16.162 53.5923 16.162ZM53.5923 14.722C54.1803 14.722 54.7323 14.584 55.2483 14.308C55.7643 14.032 56.1783 13.618 56.4903 13.066C56.8143 12.514 56.9763 11.842 56.9763 11.05C56.9763 10.258 56.8203 9.586 56.5083 9.034C56.1963 8.482 55.7883 8.074 55.2843 7.81C54.7803 7.534 54.2343 7.396 53.6463 7.396C53.0463 7.396 52.4943 7.534 51.9903 7.81C51.4983 8.074 51.1023 8.482 50.8023 9.034C50.5023 9.586 50.3523 10.258 50.3523 11.05C50.3523 11.854 50.4963 12.532 50.7843 13.084C51.0843 13.636 51.4803 14.05 51.9723 14.326C52.4643 14.59 53.0043 14.722 53.5923 14.722ZM62.442 2.68V16H60.804V2.68H62.442ZM66.8717 2.68V16H65.2337V2.68H66.8717ZM78.6633 10.69C78.6633 11.002 78.6453 11.332 78.6093 11.68H70.7253C70.7853 12.652 71.1153 13.414 71.7153 13.966C72.3273 14.506 73.0653 14.776 73.9293 14.776C74.6373 14.776 75.2253 14.614 75.6933 14.29C76.1733 13.954 76.5093 13.51 76.7013 12.958H78.4653C78.2013 13.906 77.6733 14.68 76.8813 15.28C76.0893 15.868 75.1053 16.162 73.9293 16.162C72.9933 16.162 72.1533 15.952 71.4093 15.532C70.6773 15.112 70.1013 14.518 69.6813 13.75C69.2613 12.97 69.0513 12.07 69.0513 11.05C69.0513 10.03 69.2553 9.136 69.6633 8.368C70.0713 7.6 70.6413 7.012 71.3733 6.604C72.1173 6.184 72.9693 5.974 73.9293 5.974C74.8653 5.974 75.6933 6.178 76.4133 6.586C77.1333 6.994 77.6853 7.558 78.0693 8.278C78.4653 8.986 78.6633 9.79 78.6633 10.69ZM76.9713 10.348C76.9713 9.724 76.8333 9.19 76.5573 8.746C76.2813 8.29 75.9033 7.948 75.4233 7.72C74.9553 7.48 74.4333 7.36 73.8573 7.36C73.0293 7.36 72.3213 7.624 71.7333 8.152C71.1573 8.68 70.8273 9.412 70.7433 10.348H76.9713ZM80.2135 11.05C80.2135 10.03 80.4175 9.142 80.8255 8.386C81.2335 7.618 81.7975 7.024 82.5175 6.604C83.2495 6.184 84.0835 5.974 85.0195 5.974C86.2315 5.974 87.2275 6.268 88.0075 6.856C88.7995 7.444 89.3215 8.26 89.5735 9.304H87.8095C87.6415 8.704 87.3115 8.23 86.8195 7.882C86.3395 7.534 85.7395 7.36 85.0195 7.36C84.0835 7.36 83.3275 7.684 82.7515 8.332C82.1755 8.968 81.8875 9.874 81.8875 11.05C81.8875 12.238 82.1755 13.156 82.7515 13.804C83.3275 14.452 84.0835 14.776 85.0195 14.776C85.7395 14.776 86.3395 14.608 86.8195 14.272C87.2995 13.936 87.6295 13.456 87.8095 12.832H89.5735C89.3095 13.84 88.7815 14.65 87.9895 15.262C87.1975 15.862 86.2075 16.162 85.0195 16.162C84.0835 16.162 83.2495 15.952 82.5175 15.532C81.7975 15.112 81.2335 14.518 80.8255 13.75C80.4175 12.982 80.2135 12.082 80.2135 11.05ZM93.757 7.486V13.3C93.757 13.78 93.859 14.122 94.063 14.326C94.267 14.518 94.621 14.614 95.125 14.614H96.331V16H94.855C93.943 16 93.259 15.79 92.803 15.37C92.347 14.95 92.119 14.26 92.119 13.3V7.486H90.841V6.136H92.119V3.652H93.757V6.136H96.331V7.486H93.757ZM99.1617 4.534C98.8497 4.534 98.5857 4.426 98.3697 4.21C98.1537 3.994 98.0457 3.73 98.0457 3.418C98.0457 3.106 98.1537 2.842 98.3697 2.626C98.5857 2.41 98.8497 2.302 99.1617 2.302C99.4617 2.302 99.7137 2.41 99.9177 2.626C100.134 2.842 100.242 3.106 100.242 3.418C100.242 3.73 100.134 3.994 99.9177 4.21C99.7137 4.426 99.4617 4.534 99.1617 4.534ZM99.9537 6.136V16H98.3157V6.136H99.9537ZM107.047 16.162C106.123 16.162 105.283 15.952 104.527 15.532C103.783 15.112 103.195 14.518 102.763 13.75C102.343 12.97 102.133 12.07 102.133 11.05C102.133 10.042 102.349 9.154 102.781 8.386C103.225 7.606 103.825 7.012 104.581 6.604C105.337 6.184 106.183 5.974 107.119 5.974C108.055 5.974 108.901 6.184 109.657 6.604C110.413 7.012 111.007 7.6 111.439 8.368C111.883 9.136 112.105 10.03 112.105 11.05C112.105 12.07 111.877 12.97 111.421 13.75C110.977 14.518 110.371 15.112 109.603 15.532C108.835 15.952 107.983 16.162 107.047 16.162ZM107.047 14.722C107.635 14.722 108.187 14.584 108.703 14.308C109.219 14.032 109.633 13.618 109.945 13.066C110.269 12.514 110.431 11.842 110.431 11.05C110.431 10.258 110.275 9.586 109.963 9.034C109.651 8.482 109.243 8.074 108.739 7.81C108.235 7.534 107.689 7.396 107.101 7.396C106.501 7.396 105.949 7.534 105.445 7.81C104.953 8.074 104.557 8.482 104.257 9.034C103.957 9.586 103.807 10.258 103.807 11.05C103.807 11.854 103.951 12.532 104.239 13.084C104.539 13.636 104.935 14.05 105.427 14.326C105.919 14.59 106.459 14.722 107.047 14.722ZM119.065 5.956C120.265 5.956 121.237 6.322 121.981 7.054C122.725 7.774 123.097 8.818 123.097 10.186V16H121.477V10.42C121.477 9.436 121.231 8.686 120.739 8.17C120.247 7.642 119.575 7.378 118.723 7.378C117.859 7.378 117.169 7.648 116.653 8.188C116.149 8.728 115.897 9.514 115.897 10.546V16H114.259V6.136H115.897V7.54C116.221 7.036 116.659 6.646 117.211 6.37C117.775 6.094 118.393 5.956 119.065 5.956Z" fill="#30C4F3"/>
<defs>
<linearGradient id="paint0_linear" x1="34" y1="24" x2="123" y2="24" gradientUnits="userSpaceOnUse">
<stop stop-color="#30C4F3" stop-opacity="0"/>
<stop offset="0.505208" stop-color="#30C4F3"/>
<stop offset="1" stop-color="#30C4F3" stop-opacity="0"/>
</linearGradient>
</defs>
</svg>
