<svg width="132" height="20" viewBox="0 0 132 20" fill="none" xmlns="http://www.w3.org/2000/svg">
<mask id="mask0" mask-type="alpha" maskUnits="userSpaceOnUse" x="0" y="0" width="20" height="20">
<path fill-rule="evenodd" clip-rule="evenodd" d="M2.18914 0.359039H6.56743C7.77474 0.359039 8.75657 1.33781 8.75657 2.54137V6.90602C8.75657 8.10957 7.77474 9.08835 6.56743 9.08835H2.18914C0.981831 9.08835 0 8.10957 0 6.90602V2.54137C0 1.33781 0.981831 0.359039 2.18914 0.359039ZM13.1347 0.359039H17.513C18.7203 0.359039 19.7022 1.33781 19.7022 2.54137V6.90602C19.7022 8.10957 18.7203 9.08835 17.513 9.08835H13.1347C11.9274 9.08835 10.9456 8.10957 10.9456 6.90602V2.54137C10.9456 1.33781 11.9274 0.359039 13.1347 0.359039ZM6.56743 11.2707H2.18914C0.981831 11.2707 0 12.2494 0 13.453V17.8177C0 19.0212 0.981831 20 2.18914 20H6.56743C7.77474 20 8.75657 19.0212 8.75657 17.8177V13.453C8.75657 12.2494 7.77474 11.2707 6.56743 11.2707ZM13.1347 11.2707H17.513C18.7203 11.2707 19.7022 12.2494 19.7022 13.453V17.8177C19.7022 19.0212 18.7203 20 17.513 20H13.1347C11.9274 20 10.9456 19.0212 10.9456 17.8177V13.453C10.9456 12.2494 11.9274 11.2707 13.1347 11.2707Z" fill="white"/>
</mask>
<g mask="url(#mask0)">
<rect x="-3.32471" y="-2.95535" width="26.5981" height="26.5153" fill="#56CCF2" fill-opacity="0.7"/>
</g>
<path d="M34.399 9.718C34.399 8.494 34.675 7.396 35.227 6.424C35.779 5.44 36.529 4.672 37.477 4.12C38.437 3.568 39.499 3.292 40.663 3.292C42.031 3.292 43.225 3.622 44.245 4.282C45.265 4.942 46.009 5.878 46.477 7.09H44.515C44.167 6.334 43.663 5.752 43.003 5.344C42.355 4.936 41.575 4.732 40.663 4.732C39.787 4.732 39.001 4.936 38.305 5.344C37.609 5.752 37.063 6.334 36.667 7.09C36.271 7.834 36.073 8.71 36.073 9.718C36.073 10.714 36.271 11.59 36.667 12.346C37.063 13.09 37.609 13.666 38.305 14.074C39.001 14.482 39.787 14.686 40.663 14.686C41.575 14.686 42.355 14.488 43.003 14.092C43.663 13.684 44.167 13.102 44.515 12.346H46.477C46.009 13.546 45.265 14.476 44.245 15.136C43.225 15.784 42.031 16.108 40.663 16.108C39.499 16.108 38.437 15.838 37.477 15.298C36.529 14.746 35.779 13.984 35.227 13.012C34.675 12.04 34.399 10.942 34.399 9.718ZM53.2173 16.162C52.2933 16.162 51.4533 15.952 50.6973 15.532C49.9533 15.112 49.3653 14.518 48.9333 13.75C48.5133 12.97 48.3033 12.07 48.3033 11.05C48.3033 10.042 48.5193 9.154 48.9513 8.386C49.3953 7.606 49.9953 7.012 50.7513 6.604C51.5073 6.184 52.3533 5.974 53.2893 5.974C54.2253 5.974 55.0713 6.184 55.8273 6.604C56.5833 7.012 57.1773 7.6 57.6093 8.368C58.0533 9.136 58.2753 10.03 58.2753 11.05C58.2753 12.07 58.0473 12.97 57.5913 13.75C57.1473 14.518 56.5413 15.112 55.7733 15.532C55.0053 15.952 54.1533 16.162 53.2173 16.162ZM53.2173 14.722C53.8053 14.722 54.3573 14.584 54.8733 14.308C55.3893 14.032 55.8033 13.618 56.1153 13.066C56.4393 12.514 56.6013 11.842 56.6013 11.05C56.6013 10.258 56.4453 9.586 56.1333 9.034C55.8213 8.482 55.4133 8.074 54.9093 7.81C54.4053 7.534 53.8593 7.396 53.2713 7.396C52.6713 7.396 52.1193 7.534 51.6153 7.81C51.1233 8.074 50.7273 8.482 50.4273 9.034C50.1273 9.586 49.9773 10.258 49.9773 11.05C49.9773 11.854 50.1213 12.532 50.4093 13.084C50.7093 13.636 51.1053 14.05 51.5973 14.326C52.0893 14.59 52.6293 14.722 53.2173 14.722ZM62.067 2.68V16H60.429V2.68H62.067ZM66.4967 2.68V16H64.8587V2.68H66.4967ZM78.2883 10.69C78.2883 11.002 78.2703 11.332 78.2343 11.68H70.3503C70.4103 12.652 70.7403 13.414 71.3403 13.966C71.9523 14.506 72.6903 14.776 73.5543 14.776C74.2623 14.776 74.8503 14.614 75.3183 14.29C75.7983 13.954 76.1343 13.51 76.3263 12.958H78.0903C77.8263 13.906 77.2983 14.68 76.5063 15.28C75.7143 15.868 74.7303 16.162 73.5543 16.162C72.6183 16.162 71.7783 15.952 71.0343 15.532C70.3023 15.112 69.7263 14.518 69.3063 13.75C68.8863 12.97 68.6763 12.07 68.6763 11.05C68.6763 10.03 68.8803 9.136 69.2883 8.368C69.6963 7.6 70.2663 7.012 70.9983 6.604C71.7423 6.184 72.5943 5.974 73.5543 5.974C74.4903 5.974 75.3183 6.178 76.0383 6.586C76.7583 6.994 77.3103 7.558 77.6943 8.278C78.0903 8.986 78.2883 9.79 78.2883 10.69ZM76.5963 10.348C76.5963 9.724 76.4583 9.19 76.1823 8.746C75.9063 8.29 75.5283 7.948 75.0483 7.72C74.5803 7.48 74.0583 7.36 73.4823 7.36C72.6543 7.36 71.9463 7.624 71.3583 8.152C70.7823 8.68 70.4523 9.412 70.3683 10.348H76.5963ZM79.8385 11.05C79.8385 10.03 80.0425 9.142 80.4505 8.386C80.8585 7.618 81.4225 7.024 82.1425 6.604C82.8745 6.184 83.7085 5.974 84.6445 5.974C85.8565 5.974 86.8525 6.268 87.6325 6.856C88.4245 7.444 88.9465 8.26 89.1985 9.304H87.4345C87.2665 8.704 86.9365 8.23 86.4445 7.882C85.9645 7.534 85.3645 7.36 84.6445 7.36C83.7085 7.36 82.9525 7.684 82.3765 8.332C81.8005 8.968 81.5125 9.874 81.5125 11.05C81.5125 12.238 81.8005 13.156 82.3765 13.804C82.9525 14.452 83.7085 14.776 84.6445 14.776C85.3645 14.776 85.9645 14.608 86.4445 14.272C86.9245 13.936 87.2545 13.456 87.4345 12.832H89.1985C88.9345 13.84 88.4065 14.65 87.6145 15.262C86.8225 15.862 85.8325 16.162 84.6445 16.162C83.7085 16.162 82.8745 15.952 82.1425 15.532C81.4225 15.112 80.8585 14.518 80.4505 13.75C80.0425 12.982 79.8385 12.082 79.8385 11.05ZM93.382 7.486V13.3C93.382 13.78 93.484 14.122 93.688 14.326C93.892 14.518 94.246 14.614 94.75 14.614H95.956V16H94.48C93.568 16 92.884 15.79 92.428 15.37C91.972 14.95 91.744 14.26 91.744 13.3V7.486H90.466V6.136H91.744V3.652H93.382V6.136H95.956V7.486H93.382ZM98.7867 4.534C98.4747 4.534 98.2107 4.426 97.9947 4.21C97.7787 3.994 97.6707 3.73 97.6707 3.418C97.6707 3.106 97.7787 2.842 97.9947 2.626C98.2107 2.41 98.4747 2.302 98.7867 2.302C99.0867 2.302 99.3387 2.41 99.5427 2.626C99.7587 2.842 99.8667 3.106 99.8667 3.418C99.8667 3.73 99.7587 3.994 99.5427 4.21C99.3387 4.426 99.0867 4.534 98.7867 4.534ZM99.5787 6.136V16H97.9407V6.136H99.5787ZM106.672 16.162C105.748 16.162 104.908 15.952 104.152 15.532C103.408 15.112 102.82 14.518 102.388 13.75C101.968 12.97 101.758 12.07 101.758 11.05C101.758 10.042 101.974 9.154 102.406 8.386C102.85 7.606 103.45 7.012 104.206 6.604C104.962 6.184 105.808 5.974 106.744 5.974C107.68 5.974 108.526 6.184 109.282 6.604C110.038 7.012 110.632 7.6 111.064 8.368C111.508 9.136 111.73 10.03 111.73 11.05C111.73 12.07 111.502 12.97 111.046 13.75C110.602 14.518 109.996 15.112 109.228 15.532C108.46 15.952 107.608 16.162 106.672 16.162ZM106.672 14.722C107.26 14.722 107.812 14.584 108.328 14.308C108.844 14.032 109.258 13.618 109.57 13.066C109.894 12.514 110.056 11.842 110.056 11.05C110.056 10.258 109.9 9.586 109.588 9.034C109.276 8.482 108.868 8.074 108.364 7.81C107.86 7.534 107.314 7.396 106.726 7.396C106.126 7.396 105.574 7.534 105.07 7.81C104.578 8.074 104.182 8.482 103.882 9.034C103.582 9.586 103.432 10.258 103.432 11.05C103.432 11.854 103.576 12.532 103.864 13.084C104.164 13.636 104.56 14.05 105.052 14.326C105.544 14.59 106.084 14.722 106.672 14.722ZM118.69 5.956C119.89 5.956 120.862 6.322 121.606 7.054C122.35 7.774 122.722 8.818 122.722 10.186V16H121.102V10.42C121.102 9.436 120.856 8.686 120.364 8.17C119.872 7.642 119.2 7.378 118.348 7.378C117.484 7.378 116.794 7.648 116.278 8.188C115.774 8.728 115.522 9.514 115.522 10.546V16H113.884V6.136H115.522V7.54C115.846 7.036 116.284 6.646 116.836 6.37C117.4 6.094 118.018 5.956 118.69 5.956Z" fill="#56CCF2" fill-opacity="0.7"/>
</svg>
