<svg width="20" height="21" viewBox="0 0 20 21" fill="none" xmlns="http://www.w3.org/2000/svg">
<mask id="mask0" mask-type="alpha" maskUnits="userSpaceOnUse" x="0" y="0" width="20" height="21">
<path fill-rule="evenodd" clip-rule="evenodd" d="M2.18914 0.359039H6.56743C7.77474 0.359039 8.75657 1.35571 8.75657 2.58126V7.0257C8.75657 8.25126 7.77474 9.24793 6.56743 9.24793H2.18914C0.981831 9.24793 0 8.25126 0 7.0257V2.58126C0 1.35571 0.981831 0.359039 2.18914 0.359039ZM13.1347 0.359039H17.513C18.7203 0.359039 19.7022 1.35571 19.7022 2.58126V7.0257C19.7022 8.25126 18.7203 9.24793 17.513 9.24793H13.1347C11.9274 9.24793 10.9456 8.25126 10.9456 7.0257V2.58126C10.9456 1.35571 11.9274 0.359039 13.1347 0.359039ZM6.56743 11.4702H2.18914C0.981831 11.4702 0 12.4669 0 13.6924V18.1369C0 19.3624 0.981831 20.3591 2.18914 20.3591H6.56743C7.77474 20.3591 8.75657 19.3624 8.75657 18.1369V13.6924C8.75657 12.4669 7.77474 11.4702 6.56743 11.4702ZM13.1347 11.4702H17.513C18.7203 11.4702 19.7022 12.4669 19.7022 13.6924V18.1369C19.7022 19.3624 18.7203 20.3591 17.513 20.3591H13.1347C11.9274 20.3591 10.9456 19.3624 10.9456 18.1369V13.6924C10.9456 12.4669 11.9274 11.4702 13.1347 11.4702Z" fill="white"/>
</mask>
<g mask="url(#mask0)">
<rect x="-3.32471" y="-3.0159" width="26.5981" height="27" fill="#56CCF2" fill-opacity="0.7"/>
</g>
</svg>
