<svg width="100" height="22" viewBox="0 0 100 22" fill="none" xmlns="http://www.w3.org/2000/svg">
<path d="M6.42857 7.78571V7.28571C6.15243 7.28571 5.92857 7.50957 5.92857 7.78571H6.42857ZM6.42857 9.14286L6.78212 9.49641L6.92857 9.34996V9.14286H6.42857ZM4.11178 9.54036L3.75823 9.89391L3.75823 9.89391L4.11178 9.54036ZM9.14286 17.9643H9.64286V17.7572L9.49641 17.6107L9.14286 17.9643ZM7.78571 16.6071H7.28571V16.8142L7.43216 16.9607L7.78571 16.6071ZM7.78571 14.5714H8.28571V14.3643L8.13927 14.2179L7.78571 14.5714ZM6.42857 13.2143H5.92857V13.4214L6.07502 13.5678L6.42857 13.2143ZM6.42857 11.8571V11.3571C6.15243 11.3571 5.92857 11.581 5.92857 11.8571H6.42857ZM12.7143 1V3.71429H13.7143V1H12.7143ZM11.8571 4.57143H10.5V5.57143H11.8571V4.57143ZM7.78571 7.28571H6.42857V8.28571H7.78571V7.28571ZM5.92857 7.78571V9.14286H6.92857V7.78571H5.92857ZM6.07502 8.7893L5.67752 9.1868L6.38463 9.89391L6.78212 9.49641L6.07502 8.7893ZM4.46534 9.1868L2.03212 6.75359L1.32502 7.4607L3.75823 9.89391L4.46534 9.1868ZM8.64286 6.42857C8.64286 6.90196 8.2591 7.28571 7.78571 7.28571V8.28571C8.81139 8.28571 9.64286 7.45424 9.64286 6.42857H8.64286ZM10.5 4.57143C9.47433 4.57143 8.64286 5.4029 8.64286 6.42857H9.64286C9.64286 5.95518 10.0266 5.57143 10.5 5.57143V4.57143ZM5.67752 9.1868C5.34278 9.52154 4.80007 9.52154 4.46534 9.1868L3.75823 9.89391C4.48349 10.6192 5.65937 10.6192 6.38463 9.89391L5.67752 9.1868ZM12.7143 3.71429C12.7143 4.18767 12.3305 4.57143 11.8571 4.57143V5.57143C12.8828 5.57143 13.7143 4.73996 13.7143 3.71429H12.7143ZM9.64286 20V17.9643H8.64286V20H9.64286ZM9.49641 17.6107L8.13927 16.2536L7.43216 16.9607L8.7893 18.3178L9.49641 17.6107ZM8.28571 16.6071V14.5714H7.28571V16.6071H8.28571ZM8.13927 14.2179L6.78212 12.8607L6.07502 13.5678L7.43216 14.925L8.13927 14.2179ZM6.92857 13.2143V11.8571H5.92857V13.2143H6.92857ZM6.42857 12.3571H11.8571V11.3571H6.42857V12.3571ZM12.7143 13.2143V14.119H13.7143V13.2143H12.7143ZM15.0238 16.4286H18.6429V15.4286H15.0238V16.4286ZM14.0714 15.4762C14.0714 16.0022 14.4978 16.4286 15.0238 16.4286V15.4286C15.0501 15.4286 15.0714 15.4499 15.0714 15.4762H14.0714ZM13.6667 15.0714C13.8902 15.0714 14.0714 15.2526 14.0714 15.4762H15.0714C15.0714 14.7004 14.4425 14.0714 13.6667 14.0714V15.0714ZM12.7143 14.119C12.7143 14.645 13.1407 15.0714 13.6667 15.0714V14.0714C13.693 14.0714 13.7143 14.0927 13.7143 14.119H12.7143ZM11.8571 12.3571C12.3305 12.3571 12.7143 12.7409 12.7143 13.2143H13.7143C13.7143 12.1886 12.8828 11.3571 11.8571 11.3571V12.3571ZM10.5 19.5C5.52944 19.5 1.5 15.4706 1.5 10.5H0.5C0.5 16.0228 4.97715 20.5 10.5 20.5V19.5ZM19.5 10.5C19.5 15.4706 15.4706 19.5 10.5 19.5V20.5C16.0228 20.5 20.5 16.0228 20.5 10.5H19.5ZM10.5 1.5C15.4706 1.5 19.5 5.52944 19.5 10.5H20.5C20.5 4.97715 16.0228 0.5 10.5 0.5V1.5ZM10.5 0.5C4.97715 0.5 0.5 4.97715 0.5 10.5H1.5C1.5 5.52944 5.52944 1.5 10.5 1.5V0.5Z" fill="#56CCF2" fill-opacity="0.7"/>
<path d="M39.024 5.786V9.98H43.596V11.33H39.024V15.65H44.136V17H37.386V4.436H44.136V5.786H39.024ZM51.7625 17L49.4225 13.328L47.1725 17H45.4625L48.6485 12.104L45.4625 7.136H47.3165L49.6565 10.79L51.8885 7.136H53.5985L50.4305 12.014L53.6165 17H51.7625ZM56.8658 8.954C57.1898 8.39 57.6698 7.922 58.3058 7.55C58.9538 7.166 59.7038 6.974 60.5558 6.974C61.4318 6.974 62.2238 7.184 62.9318 7.604C63.6518 8.024 64.2158 8.618 64.6238 9.386C65.0318 10.142 65.2358 11.024 65.2358 12.032C65.2358 13.028 65.0318 13.916 64.6238 14.696C64.2158 15.476 63.6518 16.082 62.9318 16.514C62.2238 16.946 61.4318 17.162 60.5558 17.162C59.7158 17.162 58.9718 16.976 58.3238 16.604C57.6878 16.22 57.2018 15.746 56.8658 15.182V21.68H55.2278V7.136H56.8658V8.954ZM63.5618 12.032C63.5618 11.288 63.4118 10.64 63.1118 10.088C62.8118 9.536 62.4038 9.116 61.8878 8.828C61.3838 8.54 60.8258 8.396 60.2138 8.396C59.6138 8.396 59.0558 8.546 58.5398 8.846C58.0358 9.134 57.6278 9.56 57.3158 10.124C57.0158 10.676 56.8658 11.318 56.8658 12.05C56.8658 12.794 57.0158 13.448 57.3158 14.012C57.6278 14.564 58.0358 14.99 58.5398 15.29C59.0558 15.578 59.6138 15.722 60.2138 15.722C60.8258 15.722 61.3838 15.578 61.8878 15.29C62.4038 14.99 62.8118 14.564 63.1118 14.012C63.4118 13.448 63.5618 12.788 63.5618 12.032ZM69.0299 3.68V17H67.3919V3.68H69.0299ZM76.1235 17.162C75.1995 17.162 74.3595 16.952 73.6035 16.532C72.8595 16.112 72.2715 15.518 71.8395 14.75C71.4195 13.97 71.2095 13.07 71.2095 12.05C71.2095 11.042 71.4255 10.154 71.8575 9.386C72.3015 8.606 72.9015 8.012 73.6575 7.604C74.4135 7.184 75.2595 6.974 76.1955 6.974C77.1315 6.974 77.9775 7.184 78.7335 7.604C79.4895 8.012 80.0835 8.6 80.5155 9.368C80.9595 10.136 81.1815 11.03 81.1815 12.05C81.1815 13.07 80.9535 13.97 80.4975 14.75C80.0535 15.518 79.4475 16.112 78.6795 16.532C77.9115 16.952 77.0595 17.162 76.1235 17.162ZM76.1235 15.722C76.7115 15.722 77.2635 15.584 77.7795 15.308C78.2955 15.032 78.7095 14.618 79.0215 14.066C79.3455 13.514 79.5075 12.842 79.5075 12.05C79.5075 11.258 79.3515 10.586 79.0395 10.034C78.7275 9.482 78.3195 9.074 77.8155 8.81C77.3115 8.534 76.7655 8.396 76.1775 8.396C75.5775 8.396 75.0255 8.534 74.5215 8.81C74.0295 9.074 73.6335 9.482 73.3335 10.034C73.0335 10.586 72.8835 11.258 72.8835 12.05C72.8835 12.854 73.0275 13.532 73.3155 14.084C73.6155 14.636 74.0115 15.05 74.5035 15.326C74.9955 15.59 75.5355 15.722 76.1235 15.722ZM84.9732 8.738C85.2612 8.174 85.6692 7.736 86.1972 7.424C86.7372 7.112 87.3912 6.956 88.1592 6.956V8.648H87.7272C85.8912 8.648 84.9732 9.644 84.9732 11.636V17H83.3352V7.136H84.9732V8.738ZM99.0501 11.69C99.0501 12.002 99.0321 12.332 98.9961 12.68H91.1121C91.1721 13.652 91.5021 14.414 92.1021 14.966C92.7141 15.506 93.4521 15.776 94.3161 15.776C95.0241 15.776 95.6121 15.614 96.0801 15.29C96.5601 14.954 96.8961 14.51 97.0881 13.958H98.8521C98.5881 14.906 98.0601 15.68 97.2681 16.28C96.4761 16.868 95.4921 17.162 94.3161 17.162C93.3801 17.162 92.5401 16.952 91.7961 16.532C91.0641 16.112 90.4881 15.518 90.0681 14.75C89.6481 13.97 89.4381 13.07 89.4381 12.05C89.4381 11.03 89.6421 10.136 90.0501 9.368C90.4581 8.6 91.0281 8.012 91.7601 7.604C92.5041 7.184 93.3561 6.974 94.3161 6.974C95.2521 6.974 96.0801 7.178 96.8001 7.586C97.5201 7.994 98.0721 8.558 98.4561 9.278C98.8521 9.986 99.0501 10.79 99.0501 11.69ZM97.3581 11.348C97.3581 10.724 97.2201 10.19 96.9441 9.746C96.6681 9.29 96.2901 8.948 95.8101 8.72C95.3421 8.48 94.8201 8.36 94.2441 8.36C93.4161 8.36 92.7081 8.624 92.1201 9.152C91.5441 9.68 91.2141 10.412 91.1301 11.348H97.3581Z" fill="#56CCF2" fill-opacity="0.7"/>
</svg>
