<svg width="22" height="22" viewBox="0 0 22 22" fill="none" xmlns="http://www.w3.org/2000/svg">
<path d="M6.71429 8.14286V7.64286C6.43814 7.64286 6.21429 7.86671 6.21429 8.14286H6.71429ZM6.71429 9.57143L7.06784 9.92498L7.21429 9.77854V9.57143H6.71429ZM4.27556 9.98985L3.92201 10.3434L3.92201 10.3434L4.27556 9.98985ZM9.57143 18.8571H10.0714V18.65L9.92498 18.5036L9.57143 18.8571ZM8.14286 17.4286H7.64286V17.6357L7.7893 17.7821L8.14286 17.4286ZM8.14286 15.2857H8.64286V15.0786L8.49641 14.9322L8.14286 15.2857ZM6.71429 13.8571H6.21429V14.0642L6.36073 14.2107L6.71429 13.8571ZM6.71429 12.4286V11.9286C6.43814 11.9286 6.21429 12.1524 6.21429 12.4286H6.71429ZM13.3571 1V3.85714H14.3571V1H13.3571ZM12.4286 4.78571H11V5.78571H12.4286V4.78571ZM8.14286 7.64286H6.71429V8.64286H8.14286V7.64286ZM6.21429 8.14286V9.57143H7.21429V8.14286H6.21429ZM6.36073 9.21788L5.94231 9.63629L6.64942 10.3434L7.06784 9.92498L6.36073 9.21788ZM4.62912 9.63629L2.06784 7.07502L1.36073 7.78212L3.92201 10.3434L4.62912 9.63629ZM9.07143 6.71429C9.07143 7.22712 8.65569 7.64286 8.14286 7.64286V8.64286C9.20798 8.64286 10.0714 7.77941 10.0714 6.71429H9.07143ZM11 4.78571C9.93488 4.78571 9.07143 5.64917 9.07143 6.71429H10.0714C10.0714 6.20145 10.4872 5.78571 11 5.78571V4.78571ZM5.94231 9.63629C5.57968 9.99892 4.99174 9.99892 4.62911 9.63629L3.92201 10.3434C4.67516 11.0966 5.89627 11.0966 6.64942 10.3434L5.94231 9.63629ZM13.3571 3.85714C13.3571 4.36998 12.9414 4.78571 12.4286 4.78571V5.78571C13.4937 5.78571 14.3571 4.92226 14.3571 3.85714H13.3571ZM10.0714 21V18.8571H9.07143V21H10.0714ZM9.92498 18.5036L8.49641 17.075L7.7893 17.7821L9.21788 19.2107L9.92498 18.5036ZM8.64286 17.4286V15.2857H7.64286V17.4286H8.64286ZM8.49641 14.9322L7.06784 13.5036L6.36073 14.2107L7.7893 15.6393L8.49641 14.9322ZM7.21429 13.8571V12.4286H6.21429V13.8571H7.21429ZM6.71429 12.9286H12.4286V11.9286H6.71429V12.9286ZM13.3571 13.8571V14.8095H14.3571V13.8571H13.3571ZM15.7619 17.2143H19.5714V16.2143H15.7619V17.2143ZM14.7857 16.2381C14.7857 16.7772 15.2228 17.2143 15.7619 17.2143V16.2143C15.7751 16.2143 15.7857 16.2249 15.7857 16.2381H14.7857ZM14.3333 15.7857C14.5832 15.7857 14.7857 15.9883 14.7857 16.2381H15.7857C15.7857 15.436 15.1355 14.7857 14.3333 14.7857V15.7857ZM13.3571 14.8095C13.3571 15.3487 13.7942 15.7857 14.3333 15.7857V14.7857C14.3465 14.7857 14.3571 14.7964 14.3571 14.8095H13.3571ZM12.4286 12.9286C12.9414 12.9286 13.3571 13.3443 13.3571 13.8571H14.3571C14.3571 12.792 13.4937 11.9286 12.4286 11.9286V12.9286ZM11 20.5C5.7533 20.5 1.5 16.2467 1.5 11H0.5C0.5 16.799 5.20101 21.5 11 21.5V20.5ZM20.5 11C20.5 16.2467 16.2467 20.5 11 20.5V21.5C16.799 21.5 21.5 16.799 21.5 11H20.5ZM11 1.5C16.2467 1.5 20.5 5.7533 20.5 11H21.5C21.5 5.20101 16.799 0.5 11 0.5V1.5ZM11 0.5C5.20101 0.5 0.5 5.20101 0.5 11H1.5C1.5 5.7533 5.7533 1.5 11 1.5V0.5Z" fill="#56CCF2" fill-opacity="0.7"/>
</svg>
