<svg width="176" height="27" viewBox="0 0 176 27" fill="none" xmlns="http://www.w3.org/2000/svg">
<path d="M42.07 7.318C41.818 7.318 41.602 7.228 41.422 7.048C41.242 6.868 41.152 6.646 41.152 6.382C41.152 6.118 41.242 5.902 41.422 5.734C41.602 5.554 41.818 5.464 42.07 5.464C42.322 5.464 42.538 5.554 42.718 5.734C42.898 5.902 42.988 6.118 42.988 6.382C42.988 6.646 42.898 6.868 42.718 7.048C42.538 7.228 42.322 7.318 42.07 7.318ZM42.7 9.172V19H41.44V9.172H42.7ZM57.2533 8.992C58.4053 8.992 59.3413 9.358 60.0613 10.09C60.7933 10.81 61.1593 11.86 61.1593 13.24V19H59.9173V13.384C59.9173 12.316 59.6593 11.5 59.1433 10.936C58.6273 10.372 57.9253 10.09 57.0373 10.09C56.1133 10.09 55.3753 10.396 54.8233 11.008C54.2713 11.62 53.9953 12.508 53.9953 13.672V19H52.7533V13.384C52.7533 12.316 52.4953 11.5 51.9793 10.936C51.4633 10.372 50.7553 10.09 49.8553 10.09C48.9313 10.09 48.1933 10.396 47.6413 11.008C47.0893 11.62 46.8133 12.508 46.8133 13.672V19H45.5533V9.172H46.8133V10.864C47.1253 10.252 47.5693 9.79 48.1453 9.478C48.7213 9.154 49.3633 8.992 50.0713 8.992C50.9233 8.992 51.6673 9.196 52.3033 9.604C52.9513 10.012 53.4193 10.612 53.7073 11.404C53.9713 10.624 54.4213 10.03 55.0573 9.622C55.7053 9.202 56.4373 8.992 57.2533 8.992ZM63.3816 14.068C63.3816 13.06 63.5796 12.178 63.9756 11.422C64.3836 10.654 64.9416 10.066 65.6496 9.658C66.3696 9.238 67.1796 9.028 68.0796 9.028C69.0156 9.028 69.8196 9.244 70.4916 9.676C71.1756 10.108 71.6676 10.66 71.9676 11.332V9.172H73.2276V19H71.9676V16.822C71.6556 17.494 71.1576 18.052 70.4736 18.496C69.8016 18.928 68.9976 19.144 68.0616 19.144C67.1736 19.144 66.3696 18.934 65.6496 18.514C64.9416 18.094 64.3836 17.5 63.9756 16.732C63.5796 15.964 63.3816 15.076 63.3816 14.068ZM71.9676 14.086C71.9676 13.294 71.8056 12.598 71.4816 11.998C71.1576 11.398 70.7136 10.936 70.1496 10.612C69.5976 10.288 68.9856 10.126 68.3136 10.126C67.6176 10.126 66.9936 10.282 66.4416 10.594C65.8896 10.906 65.4516 11.362 65.1276 11.962C64.8156 12.55 64.6596 13.252 64.6596 14.068C64.6596 14.872 64.8156 15.58 65.1276 16.192C65.4516 16.792 65.8896 17.254 66.4416 17.578C66.9936 17.89 67.6176 18.046 68.3136 18.046C68.9856 18.046 69.5976 17.884 70.1496 17.56C70.7136 17.236 71.1576 16.774 71.4816 16.174C71.8056 15.574 71.9676 14.878 71.9676 14.086ZM80.2261 9.028C81.1501 9.028 81.9541 9.244 82.6381 9.676C83.3221 10.108 83.8141 10.654 84.1141 11.314V9.172H85.3741V19.252C85.3741 20.152 85.1761 20.95 84.7801 21.646C84.3961 22.342 83.8561 22.876 83.1601 23.248C82.4641 23.632 81.6721 23.824 80.7841 23.824C79.5241 23.824 78.4741 23.524 77.6341 22.924C76.8061 22.324 76.2901 21.508 76.0861 20.476H77.3281C77.5441 21.16 77.9521 21.706 78.5521 22.114C79.1641 22.522 79.9081 22.726 80.7841 22.726C81.4201 22.726 81.9901 22.588 82.4941 22.312C82.9981 22.048 83.3941 21.652 83.6821 21.124C83.9701 20.596 84.1141 19.972 84.1141 19.252V16.822C83.8021 17.494 83.3041 18.052 82.6201 18.496C81.9481 18.928 81.1501 19.144 80.2261 19.144C79.3261 19.144 78.5161 18.934 77.7961 18.514C77.0881 18.094 76.5301 17.5 76.1221 16.732C75.7261 15.964 75.5281 15.076 75.5281 14.068C75.5281 13.06 75.7261 12.178 76.1221 11.422C76.5301 10.654 77.0881 10.066 77.7961 9.658C78.5161 9.238 79.3261 9.028 80.2261 9.028ZM84.1141 14.086C84.1141 13.294 83.9521 12.598 83.6281 11.998C83.3041 11.398 82.8601 10.936 82.2961 10.612C81.7441 10.288 81.1321 10.126 80.4601 10.126C79.7641 10.126 79.1401 10.282 78.5881 10.594C78.0361 10.906 77.5981 11.362 77.2741 11.962C76.9621 12.55 76.8061 13.252 76.8061 14.068C76.8061 14.872 76.9621 15.58 77.2741 16.192C77.5981 16.792 78.0361 17.254 78.5881 17.578C79.1401 17.89 79.7641 18.046 80.4601 18.046C81.1321 18.046 81.7441 17.884 82.2961 17.56C82.8601 17.236 83.3041 16.774 83.6281 16.174C83.9521 15.574 84.1141 14.878 84.1141 14.086ZM97.1425 13.582C97.1425 14.014 97.1305 14.344 97.1065 14.572H88.9525C88.9885 15.316 89.1685 15.952 89.4925 16.48C89.8165 17.008 90.2425 17.41 90.7705 17.686C91.2985 17.95 91.8745 18.082 92.4985 18.082C93.3145 18.082 93.9985 17.884 94.5505 17.488C95.1145 17.092 95.4865 16.558 95.6665 15.886H96.9985C96.7585 16.846 96.2425 17.632 95.4505 18.244C94.6705 18.844 93.6865 19.144 92.4985 19.144C91.5745 19.144 90.7465 18.94 90.0145 18.532C89.2825 18.112 88.7065 17.524 88.2865 16.768C87.8785 16 87.6745 15.106 87.6745 14.086C87.6745 13.066 87.8785 12.172 88.2865 11.404C88.6945 10.636 89.2645 10.048 89.9965 9.64C90.7285 9.232 91.5625 9.028 92.4985 9.028C93.4345 9.028 94.2505 9.232 94.9465 9.64C95.6545 10.048 96.1945 10.6 96.5665 11.296C96.9505 11.98 97.1425 12.742 97.1425 13.582ZM95.8645 13.546C95.8765 12.814 95.7265 12.19 95.4145 11.674C95.1145 11.158 94.7005 10.768 94.1725 10.504C93.6445 10.24 93.0685 10.108 92.4445 10.108C91.5085 10.108 90.7105 10.408 90.0505 11.008C89.3905 11.608 89.0245 12.454 88.9525 13.546H95.8645ZM105.55 11.8V12.862H98.5478V11.8H105.55ZM117.296 9.172V19H116.036V17.272C115.748 17.884 115.304 18.352 114.704 18.676C114.104 19 113.432 19.162 112.688 19.162C111.512 19.162 110.552 18.802 109.808 18.082C109.064 17.35 108.692 16.294 108.692 14.914V9.172H109.934V14.77C109.934 15.838 110.198 16.654 110.726 17.218C111.266 17.782 111.998 18.064 112.922 18.064C113.87 18.064 114.626 17.764 115.19 17.164C115.754 16.564 116.036 15.682 116.036 14.518V9.172H117.296ZM121.414 11.332C121.726 10.672 122.218 10.126 122.89 9.694C123.574 9.25 124.384 9.028 125.32 9.028C126.208 9.028 127.006 9.238 127.714 9.658C128.434 10.066 128.992 10.654 129.388 11.422C129.796 12.178 130 13.06 130 14.068C130 15.076 129.796 15.964 129.388 16.732C128.992 17.5 128.434 18.094 127.714 18.514C127.006 18.934 126.208 19.144 125.32 19.144C124.396 19.144 123.592 18.928 122.908 18.496C122.224 18.052 121.726 17.5 121.414 16.84V23.644H120.172V9.172H121.414V11.332ZM128.722 14.068C128.722 13.252 128.56 12.55 128.236 11.962C127.924 11.362 127.492 10.906 126.94 10.594C126.388 10.282 125.764 10.126 125.068 10.126C124.396 10.126 123.778 10.288 123.214 10.612C122.662 10.936 122.224 11.398 121.9 11.998C121.576 12.598 121.414 13.294 121.414 14.086C121.414 14.878 121.576 15.574 121.9 16.174C122.224 16.774 122.662 17.236 123.214 17.56C123.778 17.884 124.396 18.046 125.068 18.046C125.764 18.046 126.388 17.89 126.94 17.578C127.492 17.254 127.924 16.792 128.236 16.192C128.56 15.58 128.722 14.872 128.722 14.068ZM132.535 19.09C132.271 19.09 132.049 19 131.869 18.82C131.701 18.64 131.617 18.418 131.617 18.154C131.617 17.89 131.701 17.674 131.869 17.506C132.049 17.326 132.271 17.236 132.535 17.236C132.787 17.236 132.997 17.326 133.165 17.506C133.345 17.674 133.435 17.89 133.435 18.154C133.435 18.418 133.345 18.64 133.165 18.82C132.997 19 132.787 19.09 132.535 19.09ZM135.012 14.086C135.012 13.066 135.216 12.178 135.624 11.422C136.032 10.654 136.596 10.066 137.316 9.658C138.036 9.238 138.858 9.028 139.782 9.028C140.994 9.028 141.99 9.328 142.77 9.928C143.562 10.528 144.072 11.344 144.3 12.376H142.95C142.782 11.668 142.416 11.116 141.852 10.72C141.3 10.312 140.61 10.108 139.782 10.108C139.122 10.108 138.528 10.258 138 10.558C137.472 10.858 137.052 11.308 136.74 11.908C136.44 12.496 136.29 13.222 136.29 14.086C136.29 14.95 136.44 15.682 136.74 16.282C137.052 16.882 137.472 17.332 138 17.632C138.528 17.932 139.122 18.082 139.782 18.082C140.61 18.082 141.3 17.884 141.852 17.488C142.416 17.08 142.782 16.516 142.95 15.796H144.3C144.072 16.804 143.562 17.614 142.77 18.226C141.978 18.838 140.982 19.144 139.782 19.144C138.858 19.144 138.036 18.94 137.316 18.532C136.596 18.112 136.032 17.524 135.624 16.768C135.216 16 135.012 15.106 135.012 14.086ZM150.93 19.144C150.006 19.144 149.172 18.94 148.428 18.532C147.696 18.112 147.114 17.524 146.682 16.768C146.262 16 146.052 15.106 146.052 14.086C146.052 13.066 146.268 12.178 146.7 11.422C147.132 10.654 147.72 10.066 148.464 9.658C149.208 9.238 150.042 9.028 150.966 9.028C151.89 9.028 152.724 9.238 153.468 9.658C154.224 10.066 154.812 10.654 155.232 11.422C155.664 12.178 155.88 13.066 155.88 14.086C155.88 15.094 155.664 15.982 155.232 16.75C154.8 17.518 154.206 18.112 153.45 18.532C152.694 18.94 151.854 19.144 150.93 19.144ZM150.93 18.046C151.578 18.046 152.178 17.902 152.73 17.614C153.282 17.314 153.726 16.87 154.062 16.282C154.41 15.682 154.584 14.95 154.584 14.086C154.584 13.222 154.416 12.496 154.08 11.908C153.744 11.308 153.3 10.864 152.748 10.576C152.196 10.276 151.596 10.126 150.948 10.126C150.3 10.126 149.7 10.276 149.148 10.576C148.596 10.864 148.152 11.308 147.816 11.908C147.492 12.496 147.33 13.222 147.33 14.086C147.33 14.95 147.492 15.682 147.816 16.282C148.152 16.87 148.59 17.314 149.13 17.614C149.682 17.902 150.282 18.046 150.93 18.046ZM169.876 8.992C171.028 8.992 171.964 9.358 172.684 10.09C173.416 10.81 173.782 11.86 173.782 13.24V19H172.54V13.384C172.54 12.316 172.282 11.5 171.766 10.936C171.25 10.372 170.548 10.09 169.66 10.09C168.736 10.09 167.998 10.396 167.446 11.008C166.894 11.62 166.618 12.508 166.618 13.672V19H165.376V13.384C165.376 12.316 165.118 11.5 164.602 10.936C164.086 10.372 163.378 10.09 162.478 10.09C161.554 10.09 160.816 10.396 160.264 11.008C159.712 11.62 159.436 12.508 159.436 13.672V19H158.176V9.172H159.436V10.864C159.748 10.252 160.192 9.79 160.768 9.478C161.344 9.154 161.986 8.992 162.694 8.992C163.546 8.992 164.29 9.196 164.926 9.604C165.574 10.012 166.042 10.612 166.33 11.404C166.594 10.624 167.044 10.03 167.68 9.622C168.328 9.202 169.06 8.992 169.876 8.992Z" fill="#30C4F3"/>
<path d="M24.6999 11.7V11.2H24.1999V11.7H24.6999ZM31.8999 18.9H31.3999V19.4H31.8999V18.9ZM35.4999 18.9V19.4H35.9999V18.9H35.4999ZM37.2999 6.29999H37.7999V6.09289L37.6535 5.94644L37.2999 6.29999ZM31.8999 0.899994L32.2535 0.546441L32.1071 0.399994H31.8999V0.899994ZM21.1 11.7H21.6V11.2H21.1V11.7ZM21.1 18.9V19.4H21.6V18.9H21.1ZM17.5 18.9H17V19.4H17.5V18.9ZM24.6999 12.2H26.4999V11.2H24.6999V12.2ZM25.1999 19.8V15.3H24.1999V19.8H25.1999ZM25.1999 15.3V11.7H24.1999V15.3H25.1999ZM26.4999 14.8H24.6999V15.8H26.4999V14.8ZM27.7999 13.5C27.7999 14.218 27.2179 14.8 26.4999 14.8V15.8C27.7702 15.8 28.7999 14.7702 28.7999 13.5H27.7999ZM26.4999 12.2C27.2179 12.2 27.7999 12.782 27.7999 13.5H28.7999C28.7999 12.2297 27.7702 11.2 26.4999 11.2V12.2ZM31.3999 10.8V18.9H32.3999V10.8H31.3999ZM31.8999 19.4H35.4999V18.4H31.8999V19.4ZM35.9999 18.9V15.3H34.9999V18.9H35.9999ZM31.8999 12.2H36.3999V11.2H31.8999V12.2ZM16.2 8.99999V2.69999H15.2V8.99999H16.2ZM36.7999 6.29999V8.99999H37.7999V6.29999H36.7999ZM17.5 1.39999H31.8999V0.399994H17.5V1.39999ZM31.5464 1.25355L36.9464 6.65355L37.6535 5.94644L32.2535 0.546441L31.5464 1.25355ZM16.2 2.69999C16.2 1.98202 16.782 1.39999 17.5 1.39999V0.399994C16.2297 0.399994 15.2 1.42974 15.2 2.69999H16.2ZM15.2 21.6V24.3H16.2V21.6H15.2ZM17.5 26.6H35.4999V25.6H17.5V26.6ZM37.7999 24.3V21.6H36.7999V24.3H37.7999ZM35.4999 26.6C36.7702 26.6 37.7999 25.5702 37.7999 24.3H36.7999C36.7999 25.018 36.2179 25.6 35.4999 25.6V26.6ZM15.2 24.3C15.2 25.5702 16.2297 26.6 17.5 26.6V25.6C16.782 25.6 16.2 25.018 16.2 24.3H15.2ZM16.6 12.2H21.1V11.2H16.6V12.2ZM20.6 11.7V18.9H21.6V11.7H20.6ZM21.1 18.4H17.5V19.4H21.1V18.4ZM18 18.9V16.2H17V18.9H18Z" fill="#30C4F3"/>
<path d="M8 4.64516L9 3.6129L4.5 0L0 3.6129L1 4.64516L4 2.58065V10.8387C4 12.3871 4 15.4839 6.36328 16H15V14.7253H6.36328C5 13.9355 5.17073 12.3871 5.17073 10.8387V2.58065L8 4.64516Z" fill="#30C4F3"/>
</svg>
