<svg width="183" height="28" viewBox="0 0 183 28" fill="none" xmlns="http://www.w3.org/2000/svg">
<path d="M43.4494 8.42145C43.1974 8.42145 42.9814 8.33145 42.8014 8.15145C42.6214 7.97145 42.5314 7.74945 42.5314 7.48545C42.5314 7.22145 42.6214 7.00545 42.8014 6.83745C42.9814 6.65745 43.1974 6.56745 43.4494 6.56745C43.7014 6.56745 43.9174 6.65745 44.0974 6.83745C44.2774 7.00545 44.3674 7.22145 44.3674 7.48545C44.3674 7.74945 44.2774 7.97145 44.0974 8.15145C43.9174 8.33145 43.7014 8.42145 43.4494 8.42145ZM44.0794 10.2755V20.1035H42.8194V10.2755H44.0794ZM58.6327 10.0955C59.7847 10.0955 60.7207 10.4615 61.4407 11.1935C62.1727 11.9135 62.5387 12.9635 62.5387 14.3435V20.1035H61.2967V14.4875C61.2967 13.4195 61.0387 12.6035 60.5227 12.0395C60.0067 11.4755 59.3047 11.1935 58.4167 11.1935C57.4927 11.1935 56.7547 11.4995 56.2027 12.1115C55.6507 12.7235 55.3747 13.6115 55.3747 14.7755V20.1035H54.1327V14.4875C54.1327 13.4195 53.8747 12.6035 53.3587 12.0395C52.8427 11.4755 52.1347 11.1935 51.2347 11.1935C50.3107 11.1935 49.5727 11.4995 49.0207 12.1115C48.4687 12.7235 48.1927 13.6115 48.1927 14.7755V20.1035H46.9327V10.2755H48.1927V11.9675C48.5047 11.3555 48.9487 10.8935 49.5247 10.5815C50.1007 10.2575 50.7427 10.0955 51.4507 10.0955C52.3027 10.0955 53.0467 10.2995 53.6827 10.7075C54.3307 11.1155 54.7987 11.7155 55.0867 12.5075C55.3507 11.7275 55.8007 11.1335 56.4367 10.7255C57.0847 10.3055 57.8167 10.0955 58.6327 10.0955ZM64.761 15.1715C64.761 14.1635 64.959 13.2815 65.355 12.5255C65.763 11.7575 66.321 11.1695 67.029 10.7615C67.749 10.3415 68.559 10.1315 69.459 10.1315C70.395 10.1315 71.199 10.3475 71.871 10.7795C72.555 11.2115 73.047 11.7635 73.347 12.4355V10.2755H74.607V20.1035H73.347V17.9255C73.035 18.5975 72.537 19.1555 71.853 19.5995C71.181 20.0315 70.377 20.2475 69.441 20.2475C68.553 20.2475 67.749 20.0375 67.029 19.6175C66.321 19.1975 65.763 18.6035 65.355 17.8355C64.959 17.0675 64.761 16.1795 64.761 15.1715ZM73.347 15.1895C73.347 14.3975 73.185 13.7015 72.861 13.1015C72.537 12.5015 72.093 12.0395 71.529 11.7155C70.977 11.3915 70.365 11.2295 69.693 11.2295C68.997 11.2295 68.373 11.3855 67.821 11.6975C67.269 12.0095 66.831 12.4655 66.507 13.0655C66.195 13.6535 66.039 14.3555 66.039 15.1715C66.039 15.9755 66.195 16.6835 66.507 17.2955C66.831 17.8955 67.269 18.3575 67.821 18.6815C68.373 18.9935 68.997 19.1495 69.693 19.1495C70.365 19.1495 70.977 18.9875 71.529 18.6635C72.093 18.3395 72.537 17.8775 72.861 17.2775C73.185 16.6775 73.347 15.9815 73.347 15.1895ZM81.6055 10.1315C82.5295 10.1315 83.3335 10.3475 84.0175 10.7795C84.7015 11.2115 85.1935 11.7575 85.4935 12.4175V10.2755H86.7535V20.3555C86.7535 21.2555 86.5555 22.0535 86.1595 22.7495C85.7755 23.4455 85.2355 23.9795 84.5395 24.3515C83.8435 24.7355 83.0515 24.9275 82.1635 24.9275C80.9035 24.9275 79.8535 24.6275 79.0135 24.0275C78.1855 23.4275 77.6695 22.6115 77.4655 21.5795H78.7075C78.9235 22.2635 79.3315 22.8095 79.9315 23.2175C80.5435 23.6255 81.2875 23.8295 82.1635 23.8295C82.7995 23.8295 83.3695 23.6915 83.8735 23.4155C84.3775 23.1515 84.7735 22.7555 85.0615 22.2275C85.3495 21.6995 85.4935 21.0755 85.4935 20.3555V17.9255C85.1815 18.5975 84.6835 19.1555 83.9995 19.5995C83.3275 20.0315 82.5295 20.2475 81.6055 20.2475C80.7055 20.2475 79.8955 20.0375 79.1755 19.6175C78.4675 19.1975 77.9095 18.6035 77.5015 17.8355C77.1055 17.0675 76.9075 16.1795 76.9075 15.1715C76.9075 14.1635 77.1055 13.2815 77.5015 12.5255C77.9095 11.7575 78.4675 11.1695 79.1755 10.7615C79.8955 10.3415 80.7055 10.1315 81.6055 10.1315ZM85.4935 15.1895C85.4935 14.3975 85.3315 13.7015 85.0075 13.1015C84.6835 12.5015 84.2395 12.0395 83.6755 11.7155C83.1235 11.3915 82.5115 11.2295 81.8395 11.2295C81.1435 11.2295 80.5195 11.3855 79.9675 11.6975C79.4155 12.0095 78.9775 12.4655 78.6535 13.0655C78.3415 13.6535 78.1855 14.3555 78.1855 15.1715C78.1855 15.9755 78.3415 16.6835 78.6535 17.2955C78.9775 17.8955 79.4155 18.3575 79.9675 18.6815C80.5195 18.9935 81.1435 19.1495 81.8395 19.1495C82.5115 19.1495 83.1235 18.9875 83.6755 18.6635C84.2395 18.3395 84.6835 17.8775 85.0075 17.2775C85.3315 16.6775 85.4935 15.9815 85.4935 15.1895ZM98.5219 14.6855C98.5219 15.1175 98.5099 15.4475 98.4859 15.6755H90.3319C90.3679 16.4195 90.5479 17.0555 90.8719 17.5835C91.1959 18.1115 91.6219 18.5135 92.1499 18.7895C92.6779 19.0535 93.2539 19.1855 93.8779 19.1855C94.6939 19.1855 95.3779 18.9875 95.9299 18.5915C96.4939 18.1955 96.8659 17.6615 97.0459 16.9895H98.3779C98.1379 17.9495 97.6219 18.7355 96.8299 19.3475C96.0499 19.9475 95.0659 20.2475 93.8779 20.2475C92.9539 20.2475 92.1259 20.0435 91.3939 19.6355C90.6619 19.2155 90.0859 18.6275 89.6659 17.8715C89.2579 17.1035 89.0539 16.2095 89.0539 15.1895C89.0539 14.1695 89.2579 13.2755 89.6659 12.5075C90.0739 11.7395 90.6439 11.1515 91.3759 10.7435C92.1079 10.3355 92.9419 10.1315 93.8779 10.1315C94.8139 10.1315 95.6299 10.3355 96.3259 10.7435C97.0339 11.1515 97.5739 11.7035 97.9459 12.3995C98.3299 13.0835 98.5219 13.8455 98.5219 14.6855ZM97.2439 14.6495C97.2559 13.9175 97.1059 13.2935 96.7939 12.7775C96.4939 12.2615 96.0799 11.8715 95.5519 11.6075C95.0239 11.3435 94.4479 11.2115 93.8239 11.2115C92.8879 11.2115 92.0899 11.5115 91.4299 12.1115C90.7699 12.7115 90.4039 13.5575 90.3319 14.6495H97.2439ZM106.929 12.9035V13.9655H99.9272V12.9035H106.929ZM118.675 10.2755V20.1035H117.415V18.3755C117.127 18.9875 116.683 19.4555 116.083 19.7795C115.483 20.1035 114.811 20.2655 114.067 20.2655C112.891 20.2655 111.931 19.9055 111.187 19.1855C110.443 18.4535 110.071 17.3975 110.071 16.0175V10.2755H111.313V15.8735C111.313 16.9415 111.577 17.7575 112.105 18.3215C112.645 18.8855 113.377 19.1675 114.301 19.1675C115.249 19.1675 116.005 18.8675 116.569 18.2675C117.133 17.6675 117.415 16.7855 117.415 15.6215V10.2755H118.675ZM122.794 12.4355C123.106 11.7755 123.598 11.2295 124.27 10.7975C124.954 10.3535 125.764 10.1315 126.7 10.1315C127.588 10.1315 128.386 10.3415 129.094 10.7615C129.814 11.1695 130.372 11.7575 130.768 12.5255C131.176 13.2815 131.38 14.1635 131.38 15.1715C131.38 16.1795 131.176 17.0675 130.768 17.8355C130.372 18.6035 129.814 19.1975 129.094 19.6175C128.386 20.0375 127.588 20.2475 126.7 20.2475C125.776 20.2475 124.972 20.0315 124.288 19.5995C123.604 19.1555 123.106 18.6035 122.794 17.9435V24.7475H121.552V10.2755H122.794V12.4355ZM130.102 15.1715C130.102 14.3555 129.94 13.6535 129.616 13.0655C129.304 12.4655 128.872 12.0095 128.32 11.6975C127.768 11.3855 127.144 11.2295 126.448 11.2295C125.776 11.2295 125.158 11.3915 124.594 11.7155C124.042 12.0395 123.604 12.5015 123.28 13.1015C122.956 13.7015 122.794 14.3975 122.794 15.1895C122.794 15.9815 122.956 16.6775 123.28 17.2775C123.604 17.8775 124.042 18.3395 124.594 18.6635C125.158 18.9875 125.776 19.1495 126.448 19.1495C127.144 19.1495 127.768 18.9935 128.32 18.6815C128.872 18.3575 129.304 17.8955 129.616 17.2955C129.94 16.6835 130.102 15.9755 130.102 15.1715ZM133.914 20.1935C133.65 20.1935 133.428 20.1035 133.248 19.9235C133.08 19.7435 132.996 19.5215 132.996 19.2575C132.996 18.9935 133.08 18.7775 133.248 18.6095C133.428 18.4295 133.65 18.3395 133.914 18.3395C134.166 18.3395 134.376 18.4295 134.544 18.6095C134.724 18.7775 134.814 18.9935 134.814 19.2575C134.814 19.5215 134.724 19.7435 134.544 19.9235C134.376 20.1035 134.166 20.1935 133.914 20.1935ZM136.392 15.1895C136.392 14.1695 136.596 13.2815 137.004 12.5255C137.412 11.7575 137.976 11.1695 138.696 10.7615C139.416 10.3415 140.238 10.1315 141.162 10.1315C142.374 10.1315 143.37 10.4315 144.15 11.0315C144.942 11.6315 145.452 12.4475 145.68 13.4795H144.33C144.162 12.7715 143.796 12.2195 143.232 11.8235C142.68 11.4155 141.99 11.2115 141.162 11.2115C140.502 11.2115 139.908 11.3615 139.38 11.6615C138.852 11.9615 138.432 12.4115 138.12 13.0115C137.82 13.5995 137.67 14.3255 137.67 15.1895C137.67 16.0535 137.82 16.7855 138.12 17.3855C138.432 17.9855 138.852 18.4355 139.38 18.7355C139.908 19.0355 140.502 19.1855 141.162 19.1855C141.99 19.1855 142.68 18.9875 143.232 18.5915C143.796 18.1835 144.162 17.6195 144.33 16.8995H145.68C145.452 17.9075 144.942 18.7175 144.15 19.3295C143.358 19.9415 142.362 20.2475 141.162 20.2475C140.238 20.2475 139.416 20.0435 138.696 19.6355C137.976 19.2155 137.412 18.6275 137.004 17.8715C136.596 17.1035 136.392 16.2095 136.392 15.1895ZM152.309 20.2475C151.385 20.2475 150.551 20.0435 149.807 19.6355C149.075 19.2155 148.493 18.6275 148.061 17.8715C147.641 17.1035 147.431 16.2095 147.431 15.1895C147.431 14.1695 147.647 13.2815 148.079 12.5255C148.511 11.7575 149.099 11.1695 149.843 10.7615C150.587 10.3415 151.421 10.1315 152.345 10.1315C153.269 10.1315 154.103 10.3415 154.847 10.7615C155.603 11.1695 156.191 11.7575 156.611 12.5255C157.043 13.2815 157.259 14.1695 157.259 15.1895C157.259 16.1975 157.043 17.0855 156.611 17.8535C156.179 18.6215 155.585 19.2155 154.829 19.6355C154.073 20.0435 153.233 20.2475 152.309 20.2475ZM152.309 19.1495C152.957 19.1495 153.557 19.0055 154.109 18.7175C154.661 18.4175 155.105 17.9735 155.441 17.3855C155.789 16.7855 155.963 16.0535 155.963 15.1895C155.963 14.3255 155.795 13.5995 155.459 13.0115C155.123 12.4115 154.679 11.9675 154.127 11.6795C153.575 11.3795 152.975 11.2295 152.327 11.2295C151.679 11.2295 151.079 11.3795 150.527 11.6795C149.975 11.9675 149.531 12.4115 149.195 13.0115C148.871 13.5995 148.709 14.3255 148.709 15.1895C148.709 16.0535 148.871 16.7855 149.195 17.3855C149.531 17.9735 149.969 18.4175 150.509 18.7175C151.061 19.0055 151.661 19.1495 152.309 19.1495ZM171.256 10.0955C172.408 10.0955 173.344 10.4615 174.064 11.1935C174.796 11.9135 175.162 12.9635 175.162 14.3435V20.1035H173.92V14.4875C173.92 13.4195 173.662 12.6035 173.146 12.0395C172.63 11.4755 171.928 11.1935 171.04 11.1935C170.116 11.1935 169.378 11.4995 168.826 12.1115C168.274 12.7235 167.998 13.6115 167.998 14.7755V20.1035H166.756V14.4875C166.756 13.4195 166.498 12.6035 165.982 12.0395C165.466 11.4755 164.758 11.1935 163.858 11.1935C162.934 11.1935 162.196 11.4995 161.644 12.1115C161.092 12.7235 160.816 13.6115 160.816 14.7755V20.1035H159.556V10.2755H160.816V11.9675C161.128 11.3555 161.572 10.8935 162.148 10.5815C162.724 10.2575 163.366 10.0955 164.074 10.0955C164.926 10.0955 165.67 10.2995 166.306 10.7075C166.954 11.1155 167.422 11.7155 167.71 12.5075C167.974 11.7275 168.424 11.1335 169.06 10.7255C169.708 10.3055 170.44 10.0955 171.256 10.0955Z" fill="#4299e1"/>
<path d="M25.5517 12.1034V11.6034H25.0517V12.1034H25.5517ZM33 19.5517H32.5V20.0517H33V19.5517ZM36.7241 19.5517V20.0517H37.2241V19.5517H36.7241ZM38.5862 6.51724H39.0862V6.31013L38.9397 6.16368L38.5862 6.51724ZM33 0.93103L33.3535 0.577477L33.2071 0.43103H33V0.93103ZM21.8275 12.1034H22.3275V11.6034H21.8275V12.1034ZM21.8275 19.5517V20.0517H22.3275V19.5517H21.8275ZM18.1034 19.5517H17.6034V20.0517H18.1034V19.5517ZM25.5517 12.6034H27.4137V11.6034H25.5517V12.6034ZM26.0517 20.4828V15.8276H25.0517V20.4828H26.0517ZM26.0517 15.8276V12.1034H25.0517V15.8276H26.0517ZM27.4137 15.3276H25.5517V16.3276H27.4137V15.3276ZM28.7758 13.9655C28.7758 14.7178 28.166 15.3276 27.4137 15.3276V16.3276C28.7183 16.3276 29.7758 15.27 29.7758 13.9655H28.7758ZM27.4137 12.6034C28.166 12.6034 28.7758 13.2133 28.7758 13.9655H29.7758C29.7758 12.661 28.7183 11.6034 27.4137 11.6034V12.6034ZM32.5 11.1724V19.5517H33.5V11.1724H32.5ZM33 20.0517H36.7241V19.0517H33V20.0517ZM37.2241 19.5517V15.8276H36.2241V19.5517H37.2241ZM33 12.6034H37.6551V11.6034H33V12.6034ZM16.7413 9.31034V2.7931H15.7413V9.31034H16.7413ZM38.0862 6.51724V9.31034H39.0862V6.51724H38.0862ZM18.1034 1.43103H33V0.43103H18.1034V1.43103ZM32.6464 1.28458L38.2326 6.87079L38.9397 6.16368L33.3535 0.577477L32.6464 1.28458ZM16.7413 2.7931C16.7413 2.04085 17.3512 1.43103 18.1034 1.43103V0.43103C16.7989 0.43103 15.7413 1.48856 15.7413 2.7931H16.7413ZM15.7413 22.3448V25.1379H16.7413V22.3448H15.7413ZM18.1034 27.5H36.7241V26.5H18.1034V27.5ZM39.0862 25.1379V22.3448H38.0862V25.1379H39.0862ZM36.7241 27.5C38.0286 27.5 39.0862 26.4425 39.0862 25.1379H38.0862C38.0862 25.8902 37.4763 26.5 36.7241 26.5V27.5ZM15.7413 25.1379C15.7413 26.4425 16.7989 27.5 18.1034 27.5V26.5C17.3512 26.5 16.7413 25.8902 16.7413 25.1379H15.7413ZM17.1724 12.6034H21.8275V11.6034H17.1724V12.6034ZM21.3275 12.1034V19.5517H22.3275V12.1034H21.3275ZM21.8275 19.0517H18.1034V20.0517H21.8275V19.0517ZM18.6034 19.5517V16.7586H17.6034V19.5517H18.6034Z" fill="#4299e1"/>
<path d="M8.27586 4.80534L9.31035 3.73749L4.65517 0L0 3.73749L1.03448 4.80534L4.13793 2.66963V11.2125C4.13793 12.8142 4.13793 16.0178 6.5827 16.5517H15.5172V15.2331H6.5827C5.17242 14.416 5.34903 12.8142 5.34903 11.2125V2.66963L8.27586 4.80534Z" fill="#4299e1"/>
</svg>
